<svg width="33" height="28" viewBox="0 0 33 28" fill="none" xmlns="http://www.w3.org/2000/svg">
<path d="M14.9531 7.22167L9.90065 2.89333C9.80532 2.81167 9.68275 2.74167 9.54657 2.695C9.53295 2.695 9.51933 2.695 9.50571 2.68333C9.39676 2.64833 9.28782 2.625 9.16525 2.625C8.89288 2.625 8.63413 2.71833 8.44347 2.88167L3.36377 7.22167C2.96883 7.56 2.96883 8.12 3.36377 8.45833C3.7587 8.79667 4.41239 8.79667 4.80733 8.45833L8.14386 5.6V24.5C8.14386 24.9783 8.60689 25.375 9.16525 25.375C9.72361 25.375 10.1866 24.9783 10.1866 24.5V5.61167L13.5096 8.45833C13.7138 8.63333 13.9726 8.715 14.2313 8.715C14.4901 8.715 14.7488 8.63333 14.9531 8.45833C15.3481 8.12 15.3481 7.57167 14.9531 7.22167Z" fill="#292D32"/>
<path d="M29.3206 19.5417C28.9257 19.2033 28.272 19.2033 27.877 19.5417L24.5405 22.4V3.5C24.5405 3.02167 24.0775 2.625 23.5191 2.625C22.9608 2.625 22.4977 3.02167 22.4977 3.5V22.3883L19.1748 19.5417C18.7799 19.2033 18.1262 19.2033 17.7313 19.5417C17.3363 19.88 17.3363 20.44 17.7313 20.7783L22.7837 25.1067C22.8791 25.1883 23.0016 25.2583 23.1378 25.305C23.1514 25.305 23.165 25.305 23.1787 25.3167C23.2876 25.3517 23.4102 25.375 23.5327 25.375C23.8051 25.375 24.0639 25.2817 24.2545 25.1183L29.3206 20.7783C29.7155 20.4283 29.7155 19.88 29.3206 19.5417Z" fill="#292D32"/>
</svg>
