<svg width="37" height="31" viewBox="0 0 37 31" fill="none" xmlns="http://www.w3.org/2000/svg">
<path d="M30.2535 8.71842C32.5509 8.71842 34.4134 7.1281 34.4134 5.16634C34.4134 3.20458 32.5509 1.61426 30.2535 1.61426C27.9561 1.61426 26.0937 3.20458 26.0937 5.16634C26.0937 7.1281 27.9561 8.71842 30.2535 8.71842Z" fill="#292D32"/>
<path d="M28.8013 10.5268C26.4264 10.0876 24.4902 8.43426 23.9759 6.40634C23.7793 5.61842 23.7641 4.85634 23.9305 4.13301C24.1272 3.33217 23.4313 2.58301 22.4632 2.58301H10.5887C6.41375 2.58301 3.02536 5.47634 3.02536 9.04134V18.0184C3.02536 21.5834 6.41375 24.4768 10.5887 24.4768H12.8577C13.2813 24.4768 13.8259 24.7093 14.0679 24.9934L16.3369 27.5638C17.3353 28.7005 18.9689 28.7005 19.9673 27.5638L22.2363 24.9934C22.5237 24.6705 22.9624 24.4768 23.4465 24.4768H25.7306C29.9056 24.4768 33.2788 21.5963 33.2788 18.0313V11.8184C33.2788 11.0047 32.4015 10.4105 31.4636 10.5655C30.6165 10.6947 29.7241 10.6947 28.8013 10.5268ZM12.1014 15.4997C11.2543 15.4997 10.5887 14.9184 10.5887 14.208C10.5887 13.4976 11.2543 12.9163 12.1014 12.9163C12.9334 12.9163 13.6141 13.4976 13.6141 14.208C13.6141 14.9184 12.9485 15.4997 12.1014 15.4997ZM18.1521 15.4997C17.305 15.4997 16.6394 14.9184 16.6394 14.208C16.6394 13.4976 17.305 12.9163 18.1521 12.9163C18.9841 12.9163 19.6648 13.4976 19.6648 14.208C19.6648 14.9184 18.9992 15.4997 18.1521 15.4997ZM24.2028 15.4997C23.3557 15.4997 22.6901 14.9184 22.6901 14.208C22.6901 13.4976 23.3557 12.9163 24.2028 12.9163C25.0348 12.9163 25.7155 13.4976 25.7155 14.208C25.7155 14.9184 25.0499 15.4997 24.2028 15.4997Z" fill="#292D32"/>
</svg>
