<svg width="33" height="28" viewBox="0 0 33 28" fill="none" xmlns="http://www.w3.org/2000/svg">
<path d="M26.0823 14.6881C25.8637 14.6881 25.6451 14.6298 25.4538 14.5015C19.9477 10.8731 12.8293 10.8731 7.32322 14.5015C6.87234 14.7931 6.23019 14.7231 5.88862 14.3498C5.54704 13.9648 5.62902 13.4165 6.06623 13.1248C12.3375 8.98314 20.4396 8.98314 26.6972 13.1248C27.148 13.4165 27.23 13.9648 26.8748 14.3498C26.6972 14.5715 26.3966 14.6881 26.0823 14.6881Z" fill="#292D32"/>
<path d="M30.0583 10.6281C29.8397 10.6281 29.6211 10.5698 29.4298 10.4415C21.5054 5.2148 11.2719 5.2148 3.36109 10.4415C2.91021 10.7331 2.26806 10.6631 1.92648 10.2898C1.57125 9.91647 1.65323 9.35647 2.1041 9.0648C10.78 3.33647 21.9972 3.33647 30.6868 9.0648C31.1377 9.35647 31.2197 9.9048 30.8644 10.2898C30.6732 10.5115 30.3589 10.6281 30.0583 10.6281Z" fill="#292D32"/>
<path d="M23.5139 18.946C23.2953 18.946 23.0767 18.8877 22.8854 18.7593C18.9505 16.1577 13.8542 16.1577 9.90567 18.7593C9.4548 19.051 8.81265 18.981 8.47107 18.6077C8.1295 18.2227 8.21148 17.6743 8.64869 17.3827C13.3487 14.2793 19.4287 14.2793 24.1287 17.3827C24.5796 17.6743 24.6616 18.2227 24.3063 18.6077C24.1151 18.8293 23.8145 18.946 23.5139 18.946Z" fill="#292D32"/>
<path d="M19.9477 23.2164C19.7291 23.2164 19.5105 23.1581 19.3192 23.0297C17.5431 21.8514 15.234 21.8514 13.4579 23.0297C13.007 23.3214 12.3648 23.2514 12.0233 22.8781C11.6817 22.4931 11.7637 21.9447 12.2009 21.6531C14.7422 19.9731 18.0213 19.9731 20.5625 21.6531C21.0134 21.9447 21.0954 22.4931 20.7402 22.8781C20.5625 23.0881 20.262 23.2164 19.9477 23.2164Z" fill="#292D32"/>
</svg>
